<svg id="그룹_1" data-name="그룹 1" xmlns="http://www.w3.org/2000/svg" width="121.097" height="121.096" viewBox="0 0 121.097 121.096">
  <path id="패스_1" data-name="패스 1" d="M677.665,117.7l2.966,31.061a29.454,29.454,0,0,0,26.522,26.522l31.061,2.965-31.061,2.966a29.453,29.453,0,0,0-26.522,26.521l-2.966,31.061L674.7,207.729a29.454,29.454,0,0,0-26.522-26.521l-31.061-2.966,31.061-2.965A29.454,29.454,0,0,0,674.7,148.756Z" transform="translate(-617.117 -117.695)" fill="#fff"/>
  <path id="패스_2" data-name="패스 2" d="M702.123,136.555l-15.347,18.587a22.755,22.755,0,0,0,0,28.974L702.123,202.7l-18.586-15.347a22.752,22.752,0,0,0-28.974,0L635.978,202.7l15.346-18.586a22.752,22.752,0,0,0,0-28.974l-15.346-18.587L654.564,151.9a22.752,22.752,0,0,0,28.974,0Z" transform="translate(-608.502 -109.08)" fill="#fff"/>
</svg>
